<svg xmlns="http://www.w3.org/2000/svg" viewBox="0 0 2.4 1.79"><defs><style>.cls-1{fill:#666;}</style></defs><g id="Layer_2" data-name="Layer 2"><g id="Object"><path class="cls-1" d="M2.06.29H.15A.15.15,0,0,1,0,.15H0A.15.15,0,0,1,.15,0H2.06a.15.15,0,0,1,.15.15h0A.15.15,0,0,1,2.06.29Z"/><path class="cls-1" d="M2.25,1H.94A.15.15,0,0,1,.79.9h0A.15.15,0,0,1,.94.75H2.25A.15.15,0,0,1,2.4.9h0A.15.15,0,0,1,2.25,1Z"/><path class="cls-1" d="M2.06,1.79H.42a.15.15,0,0,1-.15-.14h0A.15.15,0,0,1,.42,1.5H2.06a.15.15,0,0,1,.15.15h0A.15.15,0,0,1,2.06,1.79Z"/></g></g></svg>