<svg id="Layer_1" enable-background="new 0 0 512 512" height="512" viewBox="0 0 512 512" width="512" xmlns="http://www.w3.org/2000/svg"><g><g><path d="m456 368h-432v-208c0-17.673 14.327-32 32-32h368c17.673 0 32 14.327 32 32z" fill="#463c4b"/><path d="m424 368h-400v-208c0-17.673 14.327-32 32-32h336c17.673 0 32 14.327 32 32z" fill="#555a6e"/><path d="m56 408h368c17.673 0 32-14.327 32-32v-8h-432v8c0 17.673 14.327 32 32 32z" fill="#a5c3dc"/><path d="m392 408h-336c-17.673 0-32-14.327-32-32v-8h400v8c0 17.673-14.327 32-32 32z" fill="#d7e6f0"/><path d="m192 408h72v32h-72z" fill="#a5c3dc"/><path d="m192 424h48v16h-48z" fill="#d7e6f0"/><path d="m304 464h-160v-8c0-8.837 7.163-16 16-16h128c8.837 0 16 7.163 16 16z" fill="#d7e6f0"/><path d="m304 464h-48v-8c0-8.837 7.163-16 16-16h16c8.837 0 16 7.163 16 16z" fill="#a5c3dc"/></g><g fill="#d7e6f0"><path d="m112 300c-3.071 0-6.143-1.172-8.485-3.515l-40-40c-4.687-4.687-4.687-12.284 0-16.971l40-40c4.686-4.686 12.285-4.686 16.971 0 4.687 4.687 4.687 12.284 0 16.971l-31.515 31.515 31.515 31.515c4.687 4.687 4.687 12.284 0 16.971-2.343 2.342-5.415 3.514-8.486 3.514z"/><path d="m224 300c-3.071 0-6.143-1.172-8.485-3.515-4.687-4.687-4.687-12.284 0-16.971l31.514-31.514-31.515-31.515c-4.687-4.687-4.687-12.284 0-16.971 4.686-4.686 12.285-4.686 16.971 0l40 40c4.687 4.687 4.687 12.284 0 16.971l-40 40c-2.342 2.343-5.414 3.515-8.485 3.515z"/><path d="m151.996 300.003c-1.483 0-2.991-.276-4.453-.861-6.153-2.461-9.146-9.445-6.685-15.599l32-80c2.462-6.152 9.443-9.147 15.599-6.685 6.153 2.461 9.146 9.445 6.685 15.599l-32 80c-1.877 4.691-6.383 7.546-11.146 7.546z"/></g><g><path d="m397.579 112c-4.326 0-8.193-2.676-9.733-6.718-.45-1.18-.933-2.343-1.45-3.489-1.785-3.959-.958-8.604 2.113-11.675l.004-.004c4.07-4.07 4.07-10.668 0-14.738l-7.889-7.889c-2.035-2.035-4.702-3.052-7.369-3.052h-27.335c-1.22-1.721-1.92-3.806-1.92-6.013 0-5.756-4.666-10.422-10.421-10.422h-43.157c-5.756 0-10.422 4.666-10.422 10.422 0 2.207-.7 4.293-1.919 6.013h-27.335c-2.667 0-5.334 1.017-7.369 3.052l-7.889 7.889c-4.07 4.07-4.07 10.668 0 14.738l.004.004c3.071 3.071 3.898 7.716 2.113 11.675-.517 1.145-1 2.309-1.45 3.489-1.541 4.042-5.407 6.718-9.733 6.718-5.755 0-10.421 4.666-10.421 10.422v11.157c0 5.756 4.666 10.422 10.421 10.422 4.325 0 8.192 2.676 9.733 6.718.45 1.18.933 2.343 1.45 3.489 1.785 3.959.958 8.604-2.113 11.675l-.004.004c-4.07 4.07-4.07 10.668 0 14.738l7.889 7.889c2.035 2.035 4.702 3.052 7.369 3.052h27.335c1.219 1.72 1.919 3.806 1.919 6.013 0 5.756 4.666 10.422 10.421 10.422h43.157c5.755 0 10.421-4.666 10.421-10.422 0-2.207.7-4.293 1.919-6.013h27.335c2.667 0 5.334-1.017 7.369-3.052l7.889-7.889c4.07-4.07 4.07-10.668 0-14.738l-.004-.004c-3.071-3.071-3.898-7.716-2.113-11.675.517-1.145 1-2.309 1.45-3.489 1.541-4.042 5.407-6.718 9.733-6.718 5.755 0 10.421-4.666 10.421-10.422v-11.157c.002-5.756-4.664-10.422-10.419-10.422zm-93.502 17.948c-.62-7.867 2.556-15.014 7.891-19.807 4.468 4.002 7.46 9.627 7.955 15.911.62 7.867-2.556 15.014-7.891 19.807-4.468-4.002-7.459-9.627-7.955-15.911z" fill="#289bc3"/><g><path d="m376 133.578v-11.157c0-5.756-4.666-10.422-10.422-10.422-4.326 0-8.193-2.676-9.733-6.718-.45-1.18-.933-2.343-1.45-3.489-1.785-3.959-.958-8.604 2.113-11.675l.004-.004c4.07-4.07 4.07-10.668 0-14.738l-7.889-7.889c-4.07-4.07-10.668-4.07-14.738 0l-.004.004c-3.071 3.071-7.715 3.898-11.674 2.113-1.145-.516-2.309-1-3.489-1.45-4.042-1.54-6.718-5.407-6.718-9.733 0-5.754-4.666-10.42-10.422-10.42h-11.157c-5.755 0-10.421 4.666-10.421 10.422 0 4.326-2.676 8.193-6.718 9.733-1.18.45-2.343.933-3.489 1.45-3.959 1.785-8.604.958-11.674-2.113l-.004-.004c-4.07-4.07-10.668-4.07-14.738 0l-7.889 7.889c-4.07 4.07-4.07 10.668 0 14.738l.004.004c3.071 3.071 3.898 7.716 2.113 11.675-.516 1.145-1 2.309-1.45 3.489-1.54 4.042-5.407 6.718-9.733 6.718-5.756 0-10.422 4.666-10.422 10.422v11.157c0 5.756 4.666 10.422 10.422 10.422 4.326 0 8.193 2.676 9.733 6.718.45 1.18.934 2.343 1.45 3.489 1.785 3.959.958 8.604-2.113 11.675l-.004.004c-4.07 4.07-4.07 10.668 0 14.738l7.889 7.889c4.07 4.07 10.668 4.07 14.738 0l.004-.004c3.071-3.071 7.715-3.898 11.674-2.113 1.145.516 2.309 1 3.489 1.45 4.042 1.54 6.718 5.407 6.718 9.733 0 5.756 4.666 10.422 10.422 10.422h11.157c5.756 0 10.422-4.666 10.422-10.422 0-4.326 2.676-8.193 6.718-9.733 1.18-.45 2.343-.933 3.489-1.45 3.959-1.785 8.604-.958 11.674 2.113l.004.004c4.07 4.07 10.668 4.07 14.738 0l7.889-7.889c4.07-4.07 4.07-10.668 0-14.738l-.004-.004c-3.071-3.071-3.898-7.716-2.113-11.675.516-1.145 1-2.309 1.45-3.489 1.54-4.042 5.407-6.718 9.733-6.718 5.755-.002 10.421-4.668 10.421-10.424zm-56.077-7.526c1.166 14.788-11.082 27.037-25.87 25.871-11.633-.917-21.058-10.342-21.976-21.975-1.166-14.788 11.082-27.037 25.87-25.871 11.634.917 21.059 10.342 21.976 21.975z" fill="#00d2d2"/></g></g><g><path d="m477.579 248c-4.326 0-8.193-2.676-9.733-6.718-.45-1.18-.933-2.343-1.45-3.489-1.785-3.959-.958-8.604 2.113-11.675l.004-.004c4.07-4.07 4.07-10.668 0-14.738l-7.889-7.889c-2.035-2.035-4.702-3.052-7.369-3.052h-27.335c-1.219-1.72-1.919-3.806-1.919-6.013 0-5.756-4.666-10.422-10.421-10.422h-43.157c-5.755 0-10.421 4.666-10.421 10.422 0 2.207-.7 4.293-1.919 6.013h-27.335c-2.667 0-5.334 1.017-7.369 3.052l-7.889 7.889c-4.07 4.07-4.07 10.668 0 14.738l.004.004c3.071 3.071 3.898 7.716 2.113 11.675-.517 1.145-1 2.309-1.45 3.489-1.541 4.042-5.407 6.718-9.733 6.718-5.755 0-10.421 4.666-10.421 10.422v11.157c0 5.756 4.666 10.422 10.421 10.422 4.325 0 8.192 2.676 9.733 6.718.45 1.18.933 2.343 1.45 3.489 1.785 3.959.958 8.604-2.113 11.675l-.004.004c-4.07 4.07-4.07 10.668 0 14.738l7.889 7.889c2.035 2.035 4.702 3.052 7.369 3.052h27.335c1.219 1.72 1.919 3.806 1.919 6.013 0 5.756 4.666 10.422 10.421 10.422h43.157c5.755 0 10.421-4.666 10.421-10.422 0-2.207.7-4.293 1.919-6.013h27.335c2.667 0 5.334-1.017 7.369-3.052l7.889-7.889c4.07-4.07 4.07-10.668 0-14.738l-.004-.004c-3.071-3.071-3.898-7.716-2.113-11.675.517-1.145 1-2.309 1.45-3.489 1.541-4.042 5.407-6.718 9.733-6.718 5.755 0 10.421-4.666 10.421-10.422v-11.157c0-5.756-4.666-10.422-10.421-10.422zm-93.502 17.948c-.62-7.867 2.556-15.014 7.891-19.807 4.468 4.002 7.46 9.627 7.955 15.911.62 7.867-2.556 15.014-7.891 19.807-4.468-4.002-7.459-9.627-7.955-15.911z" fill="#e64178"/><g><path d="m456 269.578v-11.157c0-5.756-4.666-10.422-10.422-10.422-4.326 0-8.193-2.676-9.733-6.718-.45-1.18-.933-2.343-1.45-3.489-1.785-3.959-.958-8.604 2.113-11.675l.004-.004c4.07-4.07 4.07-10.668 0-14.738l-7.889-7.889c-4.07-4.07-10.668-4.07-14.738 0l-.004.004c-3.071 3.071-7.715 3.898-11.674 2.113-1.145-.516-2.309-1-3.489-1.45-4.042-1.54-6.718-5.407-6.718-9.733 0-5.756-4.666-10.422-10.422-10.422h-11.157c-5.756 0-10.422 4.666-10.422 10.422 0 4.326-2.676 8.193-6.718 9.733-1.18.45-2.343.933-3.489 1.45-3.959 1.785-8.604.958-11.674-2.113l-.004-.004c-4.07-4.07-10.668-4.07-14.738 0l-7.889 7.889c-4.07 4.07-4.07 10.668 0 14.738l.004.004c3.071 3.071 3.898 7.716 2.113 11.675-.516 1.145-1 2.309-1.45 3.489-1.54 4.042-5.407 6.718-9.733 6.718-5.756 0-10.422 4.666-10.422 10.422v11.157c0 5.756 4.666 10.422 10.422 10.422 4.326 0 8.193 2.676 9.733 6.718.45 1.18.933 2.343 1.45 3.489 1.785 3.959.958 8.604-2.113 11.675l-.004.004c-4.07 4.07-4.07 10.668 0 14.738l7.889 7.889c4.07 4.07 10.668 4.07 14.738 0l.004-.004c3.071-3.071 7.715-3.898 11.674-2.113 1.145.516 2.309 1 3.489 1.45 4.042 1.54 6.718 5.407 6.718 9.733 0 5.756 4.666 10.422 10.422 10.422h11.157c5.756 0 10.422-4.666 10.422-10.422 0-4.326 2.676-8.193 6.718-9.733 1.18-.45 2.343-.933 3.489-1.45 3.959-1.785 8.604-.957 11.674 2.113l.004.004c4.07 4.07 10.668 4.07 14.738 0l7.889-7.889c4.07-4.07 4.07-10.668 0-14.738l-.004-.004c-3.071-3.071-3.898-7.716-2.113-11.675.516-1.145 1-2.309 1.45-3.489 1.54-4.042 5.407-6.718 9.733-6.718 5.756 0 10.422-4.666 10.422-10.422zm-56.077-7.526c1.166 14.788-11.082 27.037-25.87 25.871-11.633-.917-21.058-10.342-21.976-21.975-1.166-14.788 11.082-27.037 25.87-25.871 11.634.917 21.059 10.342 21.976 21.975z" fill="#ff6e91"/></g></g></g></svg>