<svg enable-background="new 0 0 256 256" height="512" viewBox="0 0 256 256" width="512" xmlns="http://www.w3.org/2000/svg"><g id="Layer_33"><g><g><g><path d="m131.918 126.1c-10.584 13.31-26.198 11.432-31.448 10.333-.954-.2-1.869.519-1.87 1.494v.02 23.311c0 15.938 13.04 28.978 28.978 28.978 15.938 0 28.978-13.04 28.978-28.978v-25.814c0-.151-.002-.302-.005-.453-.016-.822-.674-1.499-1.496-1.523-12.039-.353-18.381-5.124-20.819-7.513-.664-.653-1.738-.584-2.318.145z" fill="#f9c1a8"/></g></g><g><g><path d="m186.02 220.683c-.278-4.997-3.773-9.232-8.626-10.454l-22.505-5.665-7.954-3.922c-3.419-1.686-5.584-5.167-5.584-8.979v-4.933c-4.102 2.234-8.796 3.505-13.772 3.505-4.64 0-9.03-1.112-12.929-3.072v4.5c0 3.812-2.165 7.293-5.584 8.979l-7.954 3.922-22.505 5.665c-4.853 1.222-8.348 5.457-8.627 10.454l-2.204 29.461c-.102 1.822 1.349 3.356 3.174 3.356h114.099c1.825 0 3.276-1.533 3.174-3.356z" fill="#5290db"/></g></g><g><g><path d="m101.564 204.342c3.173 11.62 13.845 20.229 26.436 20.229 12.591 0 23.263-8.609 26.436-20.229l-7.502-3.699c-3.419-1.686-5.584-5.167-5.584-8.979v-4.933c-4.102 2.234-8.796 3.505-13.772 3.505-4.64 0-9.03-1.112-12.929-3.072v4.5c0 3.812-2.165 7.293-5.584 8.979z" fill="#67acef"/></g></g><g><g><path d="m146.934 200.643c-3.419-1.686-5.584-5.167-5.584-8.979v-4.933c-4.102 2.234-8.796 3.505-13.772 3.505-4.64 0-9.03-1.112-12.929-3.072v4.5c0 3.812-2.165 7.293-5.584 8.979l-1.249.616c3.775 7.324 11.416 12.366 20.183 12.366s16.408-5.042 20.183-12.366z" fill="#f9c1a8"/></g></g><g><g><path d="m158.417 139.172c-.633 0-1.253.053-1.86.147v21.938c0 .654-.03 1.3-.073 1.943.631.102 1.273.169 1.933.169 6.682 0 12.099-5.417 12.099-12.099s-5.418-12.098-12.099-12.098z" fill="#f9c1a8"/></g></g><g><g><path d="m98.6 161.258c0-3.002 0-15.969 0-21.938-.607-.094-1.227-.147-1.86-.147-6.682 0-12.099 5.417-12.099 12.099s5.417 12.099 12.099 12.099c.659 0 1.302-.067 1.933-.169-.043-.644-.073-1.291-.073-1.944z" fill="#f9c1a8"/></g></g><g><g><g><path d="m96.741 139.173c.633 0 1.253.053 1.86.147v-1.373c0-.007 0-.013 0-.02.001-.975.916-1.694 1.87-1.494 5.25 1.099 20.864 2.977 31.448-10.333.58-.729 1.654-.798 2.319-.146 2.437 2.389 8.78 7.16 20.819 7.513.822.024 1.48.701 1.496 1.523.003.151.005.302.005.453v3.876c.607-.094 1.227-.147 1.86-.147 3.261 0 6.216 1.297 8.391 3.395v-21.762c0-9.104-7.449-16.553-16.553-16.553-3.088 0-5.975.873-8.456 2.36-2.898-4.837-8.177-8.102-14.195-8.102h-8.5c-16.451 0-29.912 13.46-29.912 29.912v13.403c2.069-1.656 4.69-2.652 7.548-2.652z" fill="#414344"/></g></g></g><g><g><circle cx="40.842" cy="87.52" fill="#fcdd86" r="38.342"/></g></g><g><g><path d="m59.752 67.886h-37.82c-1.32 0-2.39 1.07-2.39 2.39v6.143c0 1.32 1.07 2.39 2.39 2.39h37.82c1.32 0 2.39-1.07 2.39-2.39v-6.143c0-1.32-1.07-2.39-2.39-2.39z" fill="#fc657e"/></g></g><g><g><path d="m30.806 87.001h-8.328c-1.32 0-2.39 1.07-2.39 2.39v15.374c0 1.32 1.07 2.39 2.39 2.39h8.328c1.32 0 2.39-1.07 2.39-2.39v-15.374c0-1.32-1.07-2.39-2.39-2.39z" fill="#70d6f9"/></g></g><g><g><circle cx="215.158" cy="87.994" fill="#fcdd86" r="38.342"/></g></g><g><g><path d="m40.842 128.362c-22.52 0-40.842-18.321-40.842-40.842s18.322-40.842 40.842-40.842 40.843 18.322 40.843 40.842-18.322 40.842-40.843 40.842zm0-76.684c-19.763 0-35.842 16.078-35.842 35.842s16.079 35.842 35.842 35.842 35.842-16.079 35.842-35.842-16.078-35.842-35.842-35.842z"/></g></g><g><g><path d="m215.158 128.836c-22.521 0-40.843-18.322-40.843-40.842s18.322-40.842 40.843-40.842 40.842 18.321 40.842 40.842-18.321 40.842-40.842 40.842zm0-76.685c-19.764 0-35.843 16.079-35.843 35.842s16.079 35.842 35.843 35.842 35.842-16.078 35.842-35.841-16.078-35.843-35.842-35.843z"/></g></g><g><g><path d="m59.752 81.309h-37.82c-2.696 0-4.89-2.193-4.89-4.89v-6.144c0-2.696 2.194-4.89 4.89-4.89h37.82c2.696 0 4.89 2.193 4.89 4.89v6.144c0 2.696-2.193 4.89-4.89 4.89zm-37.71-5h37.6v-5.923h-37.6zm37.71-5.923h.01z"/></g></g><g><g><path d="m30.806 109.655h-8.328c-2.696 0-4.89-2.193-4.89-4.89v-15.374c0-2.696 2.193-4.89 4.89-4.89h8.328c2.696 0 4.89 2.193 4.89 4.89v15.375c0 2.695-2.194 4.889-4.89 4.889zm-8.218-5h8.107v-15.154h-8.107zm8.218-15.154h.01z"/></g></g><g><g><path d="m59.705 91.298h-17.087c-1.381 0-2.5-1.119-2.5-2.5s1.119-2.5 2.5-2.5h17.087c1.381 0 2.5 1.119 2.5 2.5s-1.119 2.5-2.5 2.5z"/></g></g><g><g><path d="m59.705 99.73h-17.087c-1.381 0-2.5-1.119-2.5-2.5s1.119-2.5 2.5-2.5h17.087c1.381 0 2.5 1.119 2.5 2.5s-1.119 2.5-2.5 2.5z"/></g></g><g><g><path d="m59.705 108.162h-17.087c-1.381 0-2.5-1.119-2.5-2.5s1.119-2.5 2.5-2.5h17.087c1.381 0 2.5 1.119 2.5 2.5s-1.119 2.5-2.5 2.5z"/></g></g><g><g><path d="m231.958 66.619h-33.601c-2.31 0-4.2 1.89-4.2 4.2v9.601c0 2.31 1.89 4.2 4.2 4.2h33.601c2.31 0 4.2-1.89 4.2-4.2v-9.601c0-2.311-1.89-4.2-4.2-4.2z" fill="#5290db"/></g></g><g><g><path d="m231.958 84.619h-33.601c-2.31 0-4.2 1.89-4.2 4.2v9.601c0 2.31 1.89 4.2 4.2 4.2h33.601c2.31 0 4.2-1.89 4.2-4.2v-9.601c0-2.311-1.89-4.2-4.2-4.2z" fill="#5290db"/></g></g><g><g><path d="m231.958 87.119h-33.601c-3.694 0-6.699-3.005-6.699-6.7v-9.601c0-3.694 3.005-6.7 6.699-6.7h33.601c3.694 0 6.7 3.005 6.7 6.7v9.601c0 3.694-3.006 6.7-6.7 6.7zm-33.601-18c-.921 0-1.699.778-1.699 1.7v9.601c0 .921.778 1.7 1.699 1.7h33.601c.922 0 1.7-.778 1.7-1.7v-9.601c0-.921-.778-1.7-1.7-1.7z"/></g></g><g><g><path d="m217.951 78.119h-15c-1.381 0-2.5-1.119-2.5-2.5s1.119-2.5 2.5-2.5h15c1.381 0 2.5 1.119 2.5 2.5s-1.119 2.5-2.5 2.5z"/></g></g><g><g><path d="m227.364 78.119h-.827c-1.381 0-2.5-1.119-2.5-2.5s1.119-2.5 2.5-2.5h.827c1.381 0 2.5 1.119 2.5 2.5s-1.119 2.5-2.5 2.5z"/></g></g><g><g><path d="m231.958 105.119h-33.601c-3.694 0-6.699-3.005-6.699-6.7v-9.601c0-3.694 3.005-6.7 6.699-6.7 1.381 0 2.5 1.119 2.5 2.5s-1.119 2.5-2.5 2.5c-.921 0-1.699.778-1.699 1.7v9.601c0 .921.778 1.7 1.699 1.7h33.601c.922 0 1.7-.778 1.7-1.7v-9.601c0-.921-.778-1.7-1.7-1.7-1.381 0-2.5-1.119-2.5-2.5s1.119-2.5 2.5-2.5c3.694 0 6.7 3.005 6.7 6.7v9.601c0 3.694-3.006 6.7-6.7 6.7z"/></g></g><g><g><path d="m217.951 96.119h-15c-1.381 0-2.5-1.119-2.5-2.5s1.119-2.5 2.5-2.5h15c1.381 0 2.5 1.119 2.5 2.5s-1.119 2.5-2.5 2.5z"/></g></g><g><g><path d="m227.364 96.119h-.827c-1.381 0-2.5-1.119-2.5-2.5s1.119-2.5 2.5-2.5h.827c1.381 0 2.5 1.119 2.5 2.5s-1.119 2.5-2.5 2.5z"/></g></g><g><g><path d="m214.805 112.723c-1.381 0-2.5-1.119-2.5-2.5v-6.408c0-1.381 1.119-2.5 2.5-2.5s2.5 1.119 2.5 2.5v6.408c0 1.381-1.119 2.5-2.5 2.5z"/></g></g><g><g><path d="m222.404 113.869h-15.2c-1.381 0-2.5-1.119-2.5-2.5s1.119-2.5 2.5-2.5h15.2c1.381 0 2.5 1.119 2.5 2.5s-1.119 2.5-2.5 2.5z"/></g></g><g><g><circle cx="128" cy="49.994" fill="#fcdd86" r="38.342"/></g></g><g><g><path d="m149.848 45.895h-2.796c-.409 0-.768-.274-.872-.67-.438-1.674-1.1-3.256-1.954-4.713-.207-.353-.147-.802.142-1.091l1.978-1.978c.353-.353.353-.926 0-1.279l-4.517-4.517c-.353-.353-.926-.353-1.279 0l-1.978 1.978c-.29.29-.738.349-1.091.142-1.458-.854-3.04-1.516-4.713-1.954-.396-.104-.67-.463-.67-.872v-2.796c0-.5-.405-.905-.904-.905h-6.388c-.5 0-.904.405-.904.905v2.796c0 .409-.274.768-.67.872-1.674.438-3.256 1.1-4.713 1.954-.353.207-.802.147-1.091-.142l-1.978-1.978c-.353-.353-.926-.353-1.279 0l-4.517 4.517c-.353.353-.353.926 0 1.279l1.978 1.978c.289.29.349.738.142 1.091-.854 1.458-1.516 3.04-1.954 4.713-.103.396-.463.67-.872.67h-2.796c-.5 0-.905.405-.905.904v6.388c0 .5.405.904.905.904h2.796c.409 0 .769.274.872.67.438 1.674 1.1 3.256 1.954 4.713.207.353.147.802-.142 1.091l-1.978 1.978c-.353.353-.353.926 0 1.279l4.517 4.517c.353.353.926.353 1.279 0l1.978-1.978c.289-.289.738-.349 1.091-.142 1.458.854 3.04 1.516 4.713 1.954.396.103.67.463.67.872v2.796c0 .5.405.904.904.904h6.388c.5 0 .904-.405.904-.904v-2.796c0-.409.274-.769.67-.872 1.674-.438 3.256-1.1 4.713-1.954.353-.207.802-.147 1.091.142l1.978 1.978c.353.353.926.353 1.279 0l4.517-4.517c.353-.353.353-.926 0-1.279l-1.978-1.978c-.29-.29-.349-.738-.142-1.091.854-1.457 1.516-3.04 1.954-4.713.103-.396.463-.67.872-.67h2.796c.499 0 .905-.405.905-.904v-6.387c0-.5-.405-.905-.905-.905zm-21.848 14.744c-5.879 0-10.646-4.766-10.646-10.646s4.767-10.645 10.646-10.645 10.646 4.766 10.646 10.646-4.767 10.645-10.646 10.645z" fill="#fc657e"/></g></g><g><g><path d="m128 90.836c-22.521 0-40.842-18.322-40.842-40.842s18.321-40.843 40.842-40.843 40.842 18.322 40.842 40.842-18.321 40.843-40.842 40.843zm0-76.685c-19.764 0-35.842 16.079-35.842 35.842s16.078 35.843 35.842 35.843 35.842-16.079 35.842-35.842-16.078-35.843-35.842-35.843z"/></g></g><g><g><g><path d="m131.193 75.246h-6.387c-1.877 0-3.404-1.527-3.404-3.404v-1.601c-1.048-.342-2.069-.765-3.052-1.266l-1.133 1.133c-1.284 1.286-3.53 1.286-4.815-.001l-4.516-4.515c-1.327-1.327-1.327-3.486-.001-4.814l1.134-1.134c-.501-.983-.924-2.004-1.265-3.052h-1.601c-1.877 0-3.405-1.527-3.405-3.404v-6.388c0-1.877 1.527-3.405 3.405-3.405h1.601c.342-1.049.765-2.069 1.265-3.052l-1.132-1.133c-1.327-1.326-1.327-3.486-.001-4.813l4.519-4.518c1.285-1.285 3.528-1.286 4.814 0l1.133 1.133c.984-.501 2.004-.924 3.053-1.266v-1.601c0-1.877 1.527-3.404 3.404-3.404h6.387c1.878 0 3.405 1.527 3.405 3.404v1.601c1.048.341 2.068.764 3.052 1.265l1.132-1.132c1.329-1.327 3.487-1.328 4.814-.002l4.518 4.518c.644.643.997 1.498.997 2.407 0 .91-.354 1.766-.998 2.409l-1.131 1.131c.5.983.924 2.004 1.266 3.052h1.601c1.877 0 3.404 1.527 3.404 3.405v6.388c0 1.877-1.527 3.404-3.404 3.404h-1.601c-.342 1.049-.766 2.069-1.266 3.052l1.132 1.133c.644.643.997 1.498.997 2.407 0 .91-.354 1.766-.998 2.409l-4.516 4.515c-1.285 1.287-3.529 1.287-4.814 0l-1.133-1.132c-.982.5-2.003.924-3.052 1.266v1.601c-.002 1.877-1.53 3.404-3.408 3.404zm-4.791-5h3.197v-1.2c0-1.546 1.043-2.9 2.537-3.291 1.43-.375 2.804-.944 4.082-1.693 1.334-.78 3.029-.56 4.122.531l.851.851 2.261-2.26-.85-.85c-1.095-1.092-1.313-2.788-.532-4.122.748-1.278 1.318-2.652 1.693-4.083.391-1.493 1.743-2.537 3.289-2.537h1.201v-3.197h-1.201c-1.547 0-2.899-1.043-3.29-2.538-.375-1.431-.944-2.805-1.692-4.083-.782-1.333-.563-3.029.533-4.123l.849-.849-2.261-2.261-.849.85c-1.097 1.094-2.79 1.313-4.124.532-1.278-.749-2.652-1.318-4.081-1.692-1.495-.391-2.538-1.745-2.538-3.291v-1.201h-3.197v1.201c0 1.546-1.043 2.9-2.537 3.291-1.43.374-2.803.943-4.083 1.692-1.333.782-3.029.563-4.122-.532l-.851-.85-2.26 2.26.85.851c1.095 1.094 1.313 2.79.531 4.123-.748 1.276-1.317 2.65-1.692 4.082-.39 1.494-1.744 2.537-3.291 2.537h-1.201v3.197h1.201c1.546 0 2.899 1.043 3.291 2.537.374 1.43.943 2.803 1.692 4.083.781 1.333.563 3.028-.532 4.122l-.85.85 2.261 2.26.85-.85c1.092-1.092 2.787-1.312 4.12-.533 1.281.75 2.655 1.32 4.085 1.694 1.494.391 2.537 1.744 2.537 3.291v1.201zm-12.72-3.674s-.001.001-.002.001zm36.167-18.177h.01zm-5.271-12.72c0 .001-.001.001-.002.002zm-16.578 27.464c-7.249 0-13.146-5.897-13.146-13.146s5.897-13.145 13.146-13.145c7.248 0 13.146 5.897 13.146 13.146s-5.898 13.145-13.146 13.145zm0-21.291c-4.491 0-8.146 3.654-8.146 8.146 0 4.491 3.654 8.146 8.146 8.146s8.146-3.654 8.146-8.146-3.655-8.146-8.146-8.146z"/></g></g></g><path d="m159.052 134.94c-.043-2.163-1.766-3.908-3.922-3.972-11.355-.333-17.17-4.866-19.142-6.799-.82-.805-1.935-1.228-3.094-1.156-1.147.071-2.216.628-2.934 1.53-9.541 11.999-23.442 10.601-28.979 9.442-1.201-.253-2.438.048-3.392.822-.946.768-1.489 1.903-1.49 3.139v23.311c0 17.357 14.121 31.479 31.479 31.479 17.357 0 31.478-14.121 31.478-31.479v-25.814zm-4.995 26.318c0 14.6-11.878 26.479-26.478 26.479s-26.479-11.879-26.479-26.479v-22.16c6.008 1.042 21.331 2.133 32.134-10.661 3.217 2.863 9.704 6.961 20.822 7.494v25.327z"/><g><g><g><path d="m166.808 144.208c-1.381 0-2.5-1.119-2.5-2.5v-20.902c0-7.749-6.304-14.053-14.053-14.053-2.504 0-4.983.693-7.171 2.004-.569.34-1.251.441-1.893.281-.644-.161-1.196-.571-1.537-1.14-2.545-4.248-7.162-6.886-12.051-6.886h-8.5c-15.115 0-27.412 12.297-27.412 27.412v12.702c0 1.381-1.119 2.5-2.5 2.5s-2.5-1.119-2.5-2.5v-12.702c0-17.872 14.54-32.412 32.412-32.412h8.5c5.851 0 11.41 2.775 15.003 7.371 2.414-1.071 5.02-1.629 7.648-1.629 10.506 0 19.053 8.547 19.053 19.053v20.902c.001 1.379-1.119 2.499-2.499 2.499z"/></g></g></g><g><g><path d="m128 176.645c-4.56 0-8.808-2.258-11.363-6.041-.773-1.144-.472-2.698.672-3.471 1.143-.773 2.698-.473 3.471.672 1.625 2.404 4.324 3.84 7.221 3.84s5.596-1.436 7.221-3.84c.772-1.146 2.328-1.445 3.471-.672 1.145.773 1.445 2.327.672 3.471-2.557 3.783-6.805 6.041-11.365 6.041z"/></g></g><g><g><path d="m185.05 256h-114.099c-1.554 0-3.058-.647-4.126-1.777-1.068-1.129-1.631-2.667-1.544-4.218l2.207-29.508c.338-6.075 4.563-11.194 10.509-12.691l22.248-5.6 7.716-3.805c2.584-1.274 4.189-3.856 4.189-6.737v-3.5c0-1.381 1.119-2.5 2.5-2.5s2.5 1.119 2.5 2.5v3.5c0 4.799-2.674 9.099-6.978 11.221l-7.955 3.922c-.158.078-.324.139-.495.182l-22.505 5.665c-3.813.96-6.522 4.243-6.741 8.168l-2.207 29.508c-.01.194.096.36.188.457s.252.212.494.212h114.099c.241 0 .401-.115.493-.212s.198-.263.185-.504l-2.201-29.414c-.222-3.973-2.931-7.256-6.743-8.216l-22.505-5.665c-.171-.043-.337-.104-.495-.182l-7.955-3.922c-4.304-2.123-6.978-6.423-6.978-11.221v-3.933c0-1.381 1.119-2.5 2.5-2.5s2.5 1.119 2.5 2.5v3.933c0 2.881 1.605 5.462 4.189 6.737l7.716 3.804 22.248 5.6c5.946 1.497 10.171 6.616 10.512 12.739l2.201 29.414c.09 1.599-.474 3.137-1.541 4.266-1.069 1.13-2.572 1.777-4.126 1.777z"/></g></g><g><g><path d="m165.185 256c-1.381 0-2.5-1.119-2.5-2.5v-24.97c0-1.381 1.119-2.5 2.5-2.5s2.5 1.119 2.5 2.5v24.97c0 1.381-1.12 2.5-2.5 2.5z"/></g></g><g><g><path d="m90.815 256c-1.381 0-2.5-1.119-2.5-2.5v-24.97c0-1.381 1.119-2.5 2.5-2.5s2.5 1.119 2.5 2.5v24.97c0 1.381-1.119 2.5-2.5 2.5z"/></g></g><g><g><g><circle cx="116.453" cy="152.79" r="3.835"/></g></g><g><g><circle cx="139.061" cy="152.79" r="3.835"/></g></g></g><g><g><path d="m128 227.071c-13.157 0-24.953-8.84-28.685-21.497-.391-1.324.367-2.714 1.691-3.105 1.325-.391 2.714.367 3.105 1.691 3.109 10.546 12.933 17.911 23.889 17.911 10.815 0 20.603-7.246 23.802-17.62.407-1.319 1.808-2.059 3.125-1.652 1.319.407 2.06 1.806 1.652 3.126-3.839 12.45-15.591 21.146-28.579 21.146z"/></g></g><g><g><path d="m128 216.125c-9.06 0-17.473-4.937-21.955-12.885-.678-1.203-.253-2.728.95-3.406 1.204-.679 2.728-.253 3.406.95 3.597 6.378 10.341 10.341 17.599 10.341 7.312 0 14.081-4.006 17.663-10.456.671-1.208 2.193-1.641 3.399-.972 1.207.67 1.642 2.192.972 3.399-4.464 8.037-12.906 13.029-22.034 13.029z"/></g></g><g><g><path d="m158.417 165.87c-.446 0-.897-.024-1.379-.074-1.373-.142-2.372-1.37-2.229-2.743.141-1.374 1.359-2.368 2.743-2.23.284.029.572.047.865.047 5.293 0 9.599-4.306 9.599-9.599s-4.306-9.599-9.599-9.599c-.25 0-.496.011-.74.031-1.379.106-2.582-.916-2.692-2.292s.916-2.582 2.292-2.692c.377-.03.756-.046 1.141-.046 8.05 0 14.599 6.549 14.599 14.599s-6.55 14.598-14.6 14.598z"/></g></g><g><g><path d="m96.741 165.87c-8.05 0-14.599-6.549-14.599-14.599s6.549-14.599 14.599-14.599c.384 0 .764.017 1.14.046 1.376.111 2.402 1.316 2.292 2.693-.111 1.376-1.317 2.404-2.693 2.292-.243-.02-.49-.031-.739-.031-5.292 0-9.599 4.306-9.599 9.599 0 5.292 4.306 9.599 9.599 9.599.301 0 .598-.019.892-.05 1.374-.146 2.604.851 2.749 2.224s-.851 2.604-2.224 2.749c-.497.052-.96.077-1.417.077z"/></g></g><g><g><path d="m194.107 143.617c-2.726.508-4.874 2.612-5.392 5.282-.026.134-.213.134-.239 0-.518-2.67-2.666-4.775-5.392-5.282-.137-.025-.137-.209 0-.234 2.726-.508 4.874-2.612 5.392-5.282.026-.134.213-.134.239 0 .518 2.67 2.666 4.775 5.392 5.282.137.025.137.209 0 .234z" fill="#f5c84c"/></g></g><g><g><path d="m189.918 17.551c-4.149.773-7.419 3.976-8.208 8.041-.04.204-.325.204-.364 0-.789-4.065-4.059-7.268-8.208-8.041-.208-.039-.208-.318 0-.357 4.149-.773 7.419-3.976 8.208-8.041.04-.204.325-.204.364 0 .789 4.065 4.059 7.268 8.208 8.041.208.039.208.318 0 .357z" fill="#fc657e"/></g></g><g><g><circle cx="155.981" cy="3.377" fill="#70d6f9" r="3.377"/></g></g><g><g><circle cx="58.981" cy="202.377" fill="#87d147" r="3.377"/></g></g><g><g><path d="m73.454 175.758h-1.824v-1.824c0-1.366-1.107-2.473-2.473-2.473s-2.473 1.107-2.473 2.473v1.824h-1.824c-1.366 0-2.473 1.107-2.473 2.473s1.107 2.473 2.473 2.473h1.824v1.824c0 1.366 1.107 2.473 2.473 2.473s2.473-1.107 2.473-2.473v-1.824h1.824c1.366 0 2.473-1.107 2.473-2.473s-1.108-2.473-2.473-2.473z" fill="#70d6f9"/></g></g></g></g></svg>